<svg xmlns="http://www.w3.org/2000/svg" viewBox="0 0 28.41 29.44"><defs><style>.cls-1,.cls-5{fill:#f3eef6;}.cls-1,.cls-2{stroke:#cdc4d6;}.cls-1{stroke-miterlimit:10;}.cls-2{fill:#cdc4d6;stroke-linecap:round;stroke-linejoin:round;}.cls-3{fill:#cdc4d7;}.cls-4{fill:#f58131;}.cls-6{fill:#ee3562;}.cls-7{fill:#d9d3c7;}.cls-8{fill:#414042;}</style></defs><title>Asset 2</title><g id="Layer_2" data-name="Layer 2"><g id="Layer_1-2" data-name="Layer 1"><path class="cls-1" d="M12.76.5H2.45a2,2,0,0,0-1.95,2V27a1.94,1.94,0,0,0,2,1.94h18.1A1.94,1.94,0,0,0,22.5,27V10a4.41,4.41,0,0,0-1.38-3.21l-5.33-5A4.38,4.38,0,0,0,12.76.5Z"/><line class="cls-2" x1="4.77" y1="14.72" x2="18.99" y2="14.72"/><line class="cls-2" x1="4.77" y1="17.88" x2="18.99" y2="17.88"/><line class="cls-2" x1="4.77" y1="21.04" x2="18.99" y2="21.04"/><line class="cls-2" x1="4.77" y1="24.19" x2="16.3" y2="24.19"/><path class="cls-3" d="M13,1.15V8.64a1.19,1.19,0,0,0,1.19,1.19h7.4a.87.87,0,0,0,.6-1.5L14.14.68A.65.65,0,0,0,13,1.15Z"/><rect class="cls-4" x="17.02" y="10.71" width="4.75" height="15.29" transform="translate(17.41 -8.27) rotate(42.31)"/><rect class="cls-5" x="22.6" y="11.58" width="4.75" height="1.3" transform="translate(14.74 -13.63) rotate(42.31)"/><path class="cls-6" d="M25,9.53H27.5a1.15,1.15,0,0,1,1.15,1.15v1.4a0,0,0,0,1,0,0H23.9a0,0,0,0,1,0,0v-1.4A1.15,1.15,0,0,1,25,9.53Z" transform="translate(14.12 -14.87) rotate(42.31)"/><path class="cls-7" d="M12.49,22.42,16,25.61l-3.4.78a.48.48,0,0,1-.57-.52Z"/><path class="cls-8" d="M12,25.87a.48.48,0,0,0,.57.52l.78-.18-1.24-1.13Z"/></g></g></svg>